<?xml version="1.0" standalone="no"?>
<!DOCTYPE svg PUBLIC "-//W3C//DTD SVG 20010904//EN"
 "http://www.w3.org/TR/2001/REC-SVG-20010904/DTD/svg10.dtd">
<svg version="1.0" xmlns="http://www.w3.org/2000/svg"
 width="1700.000000pt" height="1700.000000pt" viewBox="0 0 1700.000000 1700.000000"
 preserveAspectRatio="xMidYMid meet">
<metadata>
Created by potrace 1.11, written by Peter Selinger 2001-2013
</metadata>
<g transform="translate(0.000000,1700.000000) scale(0.100000,-0.100000)"
fill="#000000" stroke="none">
<path d="M9535 16438 c-3 -12 -7 -33 -8 -46 -1 -20 -5 -21 -37 -15 -57 12
-168 9 -182 -6 -11 -10 -6 -19 25 -46 44 -38 117 -75 148 -75 20 0 21 -4 15
-62 -4 -35 -9 -72 -11 -83 -2 -11 -4 -24 -4 -29 -1 -4 -9 -5 -18 -1 -33 12
-108 20 -195 20 -69 -1 -92 -4 -105 -18 -16 -16 -14 -19 25 -55 50 -46 152
-98 223 -113 47 -10 50 -13 45 -37 -3 -15 -8 -47 -12 -72 -3 -25 -7 -46 -8
-47 -1 -2 -40 5 -87 15 -125 27 -282 20 -310 -14 -10 -13 -4 -23 43 -68 67
-63 181 -123 266 -139 l63 -12 -7 -60 c-4 -33 -7 -68 -8 -78 0 -21 4 -21 -121
12 -120 32 -326 33 -385 1 -76 -41 198 -239 366 -265 21 -4 48 -8 59 -10 11
-2 28 -4 38 -4 10 -1 16 -4 14 -8 -3 -5 -8 -39 -12 -78 -6 -70 -16 -139 -18
-141 -1 -1 -42 9 -92 21 -49 13 -117 26 -150 30 -84 10 -240 8 -304 -5 -29 -5
-55 -10 -57 -10 -13 0 0 -39 19 -60 88 -99 315 -202 497 -225 30 -4 58 -9 61
-10 3 -2 2 -28 -1 -57 -4 -29 -6 -56 -4 -60 10 -16 -16 -15 -79 2 -37 10 -84
21 -105 25 -20 3 -44 8 -53 11 -54 16 -315 9 -411 -11 -76 -17 -22 -95 137
-197 122 -79 281 -138 415 -153 66 -8 69 -10 64 -33 -2 -9 -5 -35 -7 -57 -3
-46 7 -46 -137 -9 -90 23 -127 27 -260 28 -290 2 -340 -21 -247 -113 94 -94
275 -192 422 -230 36 -9 132 -25 188 -30 5 -1 6 -29 3 -63 -2 -35 -5 -76 -5
-92 -1 -25 -4 -27 -23 -22 -180 53 -292 71 -448 71 -191 -1 -310 -24 -310 -61
0 -59 156 -191 325 -277 115 -58 236 -93 390 -111 22 -3 40 -5 41 -6 0 0 -1
-21 -3 -47 -1 -27 -4 -81 -5 -120 -2 -45 -7 -73 -14 -73 -6 0 -37 9 -70 20
-32 11 -72 23 -89 26 -16 3 -46 9 -65 14 -89 23 -330 32 -455 17 -189 -23
-218 -48 -155 -136 63 -86 281 -240 427 -301 112 -47 283 -88 373 -89 l25 -1
-3 -122 c-2 -68 -7 -126 -11 -131 -4 -4 -34 2 -67 13 -59 21 -178 52 -244 65
-73 15 -413 14 -488 0 -94 -19 -112 -29 -112 -63 0 -51 64 -119 208 -223 206
-148 397 -216 657 -235 17 -1 32 -2 35 -3 3 -1 4 -173 3 -383 -2 -211 -3 -401
-3 -424 l0 -41 -605 0 c-333 0 -605 1 -605 1 0 1 -17 51 -39 111 -77 218 -131
362 -179 475 -6 14 -33 79 -60 144 l-50 120 76 56 c90 67 169 147 239 245 64
90 136 223 162 302 43 128 23 147 -109 101 -163 -58 -329 -162 -460 -290 l-70
-68 -47 93 c-26 50 -51 100 -55 109 -5 13 5 26 42 53 68 50 193 185 247 268
83 128 157 292 177 399 15 75 10 91 -31 91 -36 0 -176 -70 -273 -137 -87 -60
-240 -203 -300 -281 -23 -30 -45 -55 -49 -55 -3 0 -19 24 -35 52 -15 29 -48
83 -73 120 -48 73 -48 72 3 128 55 60 123 156 173 245 23 40 90 195 97 224 2
9 13 50 24 91 12 41 24 96 26 121 3 26 7 55 8 65 5 29 -15 64 -35 64 -10 0
-49 -21 -88 -47 -151 -102 -287 -242 -399 -411 -35 -54 -65 -97 -67 -97 -1 0
-24 29 -51 65 -26 36 -51 66 -55 68 -5 2 12 26 38 53 95 101 173 229 227 372
54 146 72 225 67 305 -2 35 -39 28 -109 -21 -138 -96 -271 -238 -366 -390 -27
-42 -50 -77 -51 -77 -2 0 -28 26 -57 57 -29 32 -83 88 -120 126 l-68 70 30 37
c93 117 180 315 206 470 3 14 7 33 10 44 11 34 5 129 -8 137 -16 10 -49 -14
-125 -93 -102 -103 -227 -289 -264 -393 -15 -39 -26 -43 -55 -17 -10 10 -55
46 -99 81 -44 35 -81 64 -83 66 -1 1 18 45 43 98 72 152 110 319 110 490 0 67
-4 90 -15 97 -45 28 -234 -252 -310 -460 -16 -41 -32 -75 -36 -75 -5 0 -60 29
-122 64 -89 50 -112 67 -107 80 4 9 9 27 11 40 3 14 7 28 10 33 15 23 32 178
32 278 -1 166 -26 265 -60 244 -8 -5 -47 -86 -83 -169 -28 -66 -64 -195 -77
-277 -13 -82 -20 -89 -61 -66 -12 6 -71 29 -132 49 l-110 38 4 53 c10 156 3
255 -26 358 -38 134 -69 154 -102 66 -40 -108 -62 -235 -63 -361 l0 -72 -67
12 c-36 7 -67 13 -68 14 -2 1 -16 1 -32 1 l-28 0 -2 84 c-3 118 -53 286 -92
306 -16 9 -20 4 -33 -42 -13 -48 -27 -106 -31 -133 -1 -5 -3 -53 -3 -105 l-2
-95 -120 0 c-113 0 -120 1 -121 20 -3 87 -69 265 -98 265 -16 0 -34 -101 -35
-200 l0 -98 -68 -11 c-87 -14 -98 -14 -98 4 0 24 -39 118 -60 145 -30 38 -41
11 -38 -92 1 -48 0 -89 -3 -92 -2 -3 -16 -7 -29 -9 -34 -6 -131 -34 -208 -59
-55 -18 -62 -23 -56 -42 3 -12 9 -24 13 -28 3 -3 67 11 141 33 74 21 141 39
148 39 8 0 12 -17 13 -52 0 -63 29 -180 45 -185 31 -10 68 193 44 238 -12 21
-2 25 72 33 26 3 58 8 70 11 l23 6 1 -143 c1 -137 11 -198 34 -198 29 0 89
174 95 276 2 37 6 69 9 72 8 7 224 8 231 0 4 -3 1 -23 -5 -45 -15 -49 -21
-288 -9 -330 5 -18 16 -33 23 -33 8 0 29 24 48 53 62 95 94 190 99 303 l3 44
40 -6 c68 -10 139 -24 144 -28 2 -3 -1 -21 -8 -41 -20 -62 -38 -197 -38 -290
0 -136 18 -154 80 -83 66 75 134 222 152 332 3 16 7 30 9 33 5 4 159 -46 220
-72 20 -8 37 -19 37 -24 0 -5 -12 -35 -26 -67 -38 -85 -88 -257 -99 -339 -15
-118 -16 -142 -1 -154 12 -10 21 -6 51 21 89 77 185 236 235 388 12 36 23 67
25 69 2 1 53 -25 113 -59 l109 -63 -57 -79 c-91 -128 -198 -360 -215 -471 -5
-26 -2 -36 11 -41 38 -14 180 77 278 178 48 50 143 186 167 239 7 15 16 27 21
27 11 0 198 -150 198 -159 0 -3 -23 -31 -51 -61 -90 -98 -233 -335 -254 -421
-15 -63 46 -60 172 7 112 59 202 137 290 251 l41 52 108 -115 c60 -63 110
-119 112 -123 1 -4 -12 -18 -30 -31 -122 -89 -253 -238 -346 -390 -83 -136
-85 -172 -10 -172 31 0 104 15 138 29 8 3 20 7 27 9 26 5 131 60 188 97 33 22
99 80 147 128 l87 89 60 -76 59 -77 -72 -56 c-73 -59 -181 -166 -237 -236 -84
-106 -199 -301 -199 -337 0 -43 70 -55 173 -28 179 45 330 132 463 266 l81 82
39 -62 c89 -140 106 -176 84 -176 -16 0 -157 -86 -223 -137 -137 -105 -337
-335 -337 -389 0 -59 122 -70 322 -29 117 23 299 119 402 209 16 14 32 26 35
26 3 0 30 -48 59 -107 42 -82 51 -108 40 -114 -7 -5 -16 -9 -20 -9 -3 0 -40
-15 -80 -34 -127 -59 -255 -152 -380 -277 -100 -99 -118 -121 -118 -148 0 -51
34 -65 170 -69 205 -6 373 44 538 158 l56 39 17 -27 c9 -15 58 -133 109 -262
51 -129 96 -244 101 -255 11 -27 89 -252 89 -257 0 -3 -265 -5 -589 -5 l-589
0 -23 41 c-30 54 -133 205 -156 231 -10 11 -29 34 -41 50 -27 34 -119 130
-183 191 -60 56 -205 164 -284 210 -41 24 -61 42 -56 48 11 14 47 146 56 211
14 87 13 267 0 355 -24 157 -90 347 -137 397 -48 51 -85 23 -148 -112 -68
-144 -114 -293 -140 -452 -10 -60 -13 -102 -19 -246 -1 -10 -5 -16 -10 -13
-12 8 -143 35 -204 42 -29 4 -59 8 -67 10 -8 1 -25 3 -36 3 -19 1 -22 7 -23
59 -1 31 -3 68 -6 82 -21 123 -29 157 -49 218 -46 135 -148 315 -212 373 -59
54 -86 43 -103 -44 -6 -28 -13 -65 -16 -82 -11 -53 -13 -308 -3 -380 5 -38 17
-105 27 -148 l18 -77 -21 -5 c-11 -2 -43 -7 -71 -10 -27 -3 -66 -9 -85 -12
-73 -13 -83 -10 -87 22 -20 149 -125 352 -246 476 -53 54 -83 66 -97 39 -10
-18 -6 -167 6 -235 20 -117 58 -240 100 -329 24 -49 21 -65 -12 -66 -14 0
-115 -41 -212 -86 l-76 -35 -21 28 c-72 100 -239 219 -296 211 -28 -4 -31 -20
-12 -68 8 -19 14 -35 13 -35 -1 0 3 -13 9 -30 16 -44 49 -103 87 -158 19 -26
34 -50 34 -55 -1 -4 -37 -31 -81 -61 l-80 -55 -42 41 c-74 72 -208 141 -237
123 -25 -16 40 -154 109 -232 l39 -43 -88 -87 c-48 -49 -90 -88 -94 -88 -3 0
-25 13 -47 30 -46 33 -146 73 -160 65 -5 -4 -9 -13 -9 -21 0 -19 57 -109 97
-153 l31 -34 -50 -68 c-27 -38 -52 -69 -55 -69 -3 0 -20 9 -37 19 -49 30 -114
47 -128 33 -9 -9 -3 -22 22 -54 18 -24 46 -54 62 -67 28 -22 28 -24 13 -47 -9
-14 -38 -67 -66 -119 l-50 -94 29 -15 29 -15 48 93 c72 140 67 136 111 92 43
-43 119 -90 133 -82 23 15 -32 129 -84 174 l-36 32 52 70 c29 39 57 70 63 70
6 0 21 -17 33 -38 50 -88 175 -201 192 -173 25 40 -42 214 -107 279 l-40 40
76 79 c114 116 105 112 137 51 38 -73 86 -137 140 -187 61 -56 80 -52 81 19 2
95 -47 236 -104 297 -13 14 -20 29 -15 33 34 31 155 111 163 108 6 -2 25 -39
43 -83 18 -44 50 -106 70 -137 45 -67 128 -158 145 -158 43 0 46 179 5 300
-20 59 -58 134 -78 154 -9 9 -14 20 -10 25 10 18 246 121 274 121 12 0 18 -10
19 -37 11 -174 114 -481 164 -491 32 -6 75 97 94 230 12 80 7 257 -9 309 -8
26 -12 51 -8 57 8 12 61 24 165 37 58 8 59 7 53 -16 -33 -134 -24 -427 19
-574 8 -27 14 -51 14 -53 -1 -1 6 -27 15 -57 14 -49 36 -75 63 -75 33 0 110
121 167 262 49 124 68 222 70 383 l2 140 49 -3 c56 -4 251 -39 264 -47 5 -3
-10 -44 -32 -92 -43 -93 -93 -236 -103 -292 -3 -19 -8 -37 -10 -40 -2 -4 -6
-25 -9 -47 -4 -22 -9 -51 -12 -64 -13 -54 -15 -338 -3 -364 26 -56 96 -27 211
89 87 86 174 201 225 295 55 102 119 283 122 348 2 37 257 -146 390 -279 105
-104 224 -254 284 -359 l27 -46 -278 0 c-259 0 -280 -1 -323 -21 -25 -11 -61
-36 -81 -55 -65 -66 -81 -131 -64 -263 4 -33 10 -76 12 -95 3 -19 7 -46 9 -60
3 -14 7 -50 11 -80 3 -30 8 -64 10 -74 2 -11 8 -56 14 -100 17 -123 56 -183
148 -228 41 -19 65 -22 190 -24 79 -2 146 -4 147 -6 5 -5 12 -51 21 -138 4
-41 8 -77 9 -80 1 -3 5 -41 9 -85 5 -44 9 -87 11 -95 1 -8 6 -46 9 -85 11
-105 17 -157 21 -185 2 -14 6 -54 10 -90 3 -36 10 -96 15 -135 9 -74 19 -153
25 -220 12 -115 22 -205 35 -315 5 -41 12 -102 15 -135 5 -56 8 -85 20 -175 3
-19 7 -62 10 -95 4 -33 10 -94 15 -135 5 -41 12 -100 15 -130 3 -30 8 -71 10
-90 2 -19 7 -60 10 -90 3 -30 8 -71 10 -90 2 -19 6 -55 9 -80 3 -25 8 -72 11
-105 4 -33 8 -71 11 -85 2 -14 6 -55 9 -91 3 -36 7 -74 9 -85 2 -10 7 -48 11
-84 3 -36 16 -84 27 -107 26 -56 96 -117 151 -132 33 -10 432 -13 1678 -14
l1634 -1 46 21 c93 44 143 119 154 233 3 36 8 76 10 90 2 14 7 52 10 85 6 58
12 112 20 185 2 19 7 62 10 95 3 33 8 71 11 85 5 31 11 86 19 165 3 33 7 69 9
80 2 11 7 54 11 95 4 41 9 82 10 90 2 8 6 49 10 90 4 41 8 82 10 90 2 8 6 49
10 90 4 41 8 77 10 80 1 3 6 41 10 84 4 43 8 86 10 95 1 9 6 47 10 84 3 37 8
76 10 86 2 9 6 51 10 92 4 40 8 76 10 79 1 3 6 46 10 95 4 50 8 92 10 95 1 3
6 41 10 84 4 43 8 88 11 100 2 11 6 50 10 86 3 36 8 73 10 83 2 10 6 48 9 85
4 37 8 78 10 92 2 14 6 50 10 80 3 30 8 71 10 90 10 81 17 146 18 156 0 8 38
12 126 11 159 0 213 12 274 64 55 47 81 101 91 184 3 33 8 71 11 85 5 34 23
164 31 225 3 28 8 59 10 70 2 11 7 55 10 97 6 71 4 82 -20 132 -30 61 -78 103
-146 130 -25 10 -46 17 -47 17 -2 -1 -194 -1 -428 -1 l-425 0 32 58 c48 86
136 218 202 302 112 141 309 323 437 404 l26 16 28 -77 c68 -193 167 -348 319
-498 153 -150 266 -220 311 -191 51 34 13 343 -71 578 -39 109 -143 314 -182
360 -13 16 -12 18 12 28 42 16 216 58 266 65 l46 6 0 -43 c1 -113 23 -234 68
-373 2 -5 4 -13 5 -17 2 -10 61 -122 96 -183 89 -154 176 -217 204 -147 22 56
43 221 45 352 1 155 -7 242 -33 354 l-19 79 91 -7 c51 -3 101 -8 112 -10 11
-3 28 -5 39 -5 15 -1 17 -6 12 -33 -12 -65 -8 -253 7 -323 33 -149 94 -285
128 -285 25 0 34 17 68 122 37 116 58 242 60 363 1 49 4 91 6 93 7 8 250 -78
292 -103 1 0 -9 -29 -23 -63 -35 -87 -52 -185 -48 -278 7 -136 32 -176 79
-126 63 66 166 265 178 341 2 11 6 23 9 27 6 6 137 -66 169 -93 16 -13 15 -19
-12 -71 -16 -31 -36 -80 -43 -107 -18 -70 -21 -205 -4 -228 13 -17 16 -16 55
18 45 38 120 152 149 223 9 24 21 41 27 39 17 -5 175 -141 181 -155 3 -7 -8
-38 -24 -70 -48 -95 -69 -247 -34 -247 26 0 145 131 159 175 4 11 10 20 16 20
9 0 123 -134 148 -174 12 -20 11 -25 -12 -50 -32 -35 -63 -101 -70 -148 -4
-32 -2 -38 13 -38 21 0 69 37 117 90 17 19 33 33 36 30 11 -15 54 -78 63 -95
6 -11 32 -57 58 -101 25 -45 46 -87 46 -93 0 -14 13 -14 44 1 l26 11 -45 83
c-46 87 -80 143 -122 206 l-25 37 34 43 c19 24 45 60 57 81 19 32 20 38 7 43
-20 8 -77 -12 -121 -42 -20 -13 -38 -24 -41 -24 -8 0 -24 18 -64 70 -19 25
-37 47 -40 50 -3 3 -20 22 -39 42 l-34 37 47 53 c52 59 116 178 116 215 0 21
-3 23 -22 17 -61 -18 -129 -63 -183 -119 l-60 -62 -30 29 c-16 16 -62 55 -101
87 l-70 57 46 66 c47 67 110 209 110 249 0 19 -4 21 -34 16 -67 -11 -215 -128
-252 -199 l-14 -27 -78 48 c-42 26 -85 52 -94 57 -15 8 -14 14 13 54 62 90
140 296 133 348 -1 6 -2 17 -3 22 -3 29 -80 -6 -164 -74 -61 -50 -133 -139
-160 -198 -10 -20 -21 -39 -25 -42 -4 -2 -34 7 -67 20 -33 14 -110 41 -171 60
l-112 36 19 62 c51 165 67 271 64 445 -2 124 -12 171 -37 171 -16 0 -109 -99
-128 -136 -8 -16 -27 -49 -42 -73 -53 -86 -115 -291 -117 -394 -1 -24 -4 -27
-28 -22 -27 5 -116 13 -198 19 -22 1 -39 7 -38 12 18 106 24 336 11 449 -11
93 -53 276 -75 322 -8 17 -23 33 -33 36 -72 19 -224 -285 -266 -533 -3 -14 -6
-88 -9 -165 l-4 -140 -73 -12 c-81 -14 -224 -50 -250 -64 -21 -12 -26 -4 -32
57 -26 247 -157 585 -297 765 -68 87 -123 39 -169 -150 -11 -42 -22 -98 -26
-126 -3 -27 -8 -59 -10 -70 -6 -28 -5 -254 1 -290 3 -16 10 -55 15 -85 13 -70
41 -169 70 -240 l22 -55 -28 -20 c-137 -99 -203 -154 -289 -240 -174 -173
-274 -306 -385 -508 l-42 -77 -482 2 -481 3 0 405 c0 223 1 413 4 423 3 14 10
17 35 11 17 -3 94 -7 171 -9 109 -2 159 1 228 16 179 39 366 122 448 199 76
72 65 99 -60 150 -91 37 -293 87 -391 96 -129 13 -358 6 -405 -12 -15 -6 -16
5 -14 112 3 122 6 147 18 140 10 -7 146 -19 210 -19 197 0 404 58 584 164 100
59 139 108 117 149 -20 36 -243 112 -427 145 -69 12 -328 13 -448 3 l-29 -3 3
80 c1 44 4 94 6 110 2 17 3 40 4 53 1 13 4 21 9 19 39 -25 302 -26 408 -1 194
43 414 162 414 222 0 28 -26 44 -132 81 -184 64 -417 90 -616 67 l-62 -7 6 88
c4 48 7 93 7 100 0 8 11 10 31 6 42 -9 231 -9 287 -1 101 15 207 50 310 104
71 38 100 74 83 102 -11 16 -139 67 -196 77 -17 3 -34 8 -37 10 -33 20 -327
34 -415 20 l-39 -7 6 74 c4 40 7 74 7 74 0 1 19 -2 43 -7 43 -8 266 -5 302 4
11 3 34 8 50 12 58 13 212 75 257 104 103 66 78 104 -99 152 -142 39 -188 44
-371 44 l-153 0 2 50 c1 28 4 55 6 60 2 7 44 9 112 7 167 -6 361 43 459 115
55 41 42 63 -55 95 -45 14 -99 29 -120 33 -21 3 -60 10 -88 15 -27 5 -103 8
-167 7 -100 -2 -117 0 -114 13 3 8 8 53 11 100 4 47 9 87 11 89 2 3 50 5 107
6 116 3 224 33 312 90 66 42 79 59 66 82 -22 41 -228 92 -363 90 -100 -2 -98
-4 -84 83 l9 55 69 -3 c123 -7 281 41 345 104 l27 27 -23 18 c-47 38 -157 63
-279 64 l-114 0 6 57 c8 66 14 99 19 105 2 2 42 5 88 7 127 5 270 68 248 109
-17 29 -135 58 -250 60 -54 1 -66 5 -64 17 2 8 6 44 10 80 4 36 9 67 11 69 3
3 27 4 55 2 91 -5 200 37 187 71 -7 17 -95 47 -158 54 -61 7 -70 11 -65 26 12
38 13 78 0 78 -7 0 -20 3 -29 6 -10 4 -17 -2 -21 -18z"/>
<path d="M14062 5603 c-4 -1 -19 -4 -34 -7 -35 -8 -85 -57 -95 -93 -4 -15 -7
-595 -7 -1288 0 -1400 -5 -1296 66 -1346 29 -21 44 -23 139 -24 119 0 145 10
182 74 18 29 19 64 19 551 l0 520 32 1 c230 4 296 -8 364 -67 48 -40 77 -90
92 -157 5 -25 10 -213 10 -432 1 -346 3 -390 18 -414 40 -63 78 -78 197 -80
80 -2 95 1 125 21 19 13 43 38 53 56 19 32 20 56 20 415 0 433 -4 501 -40 612
-23 72 -60 144 -100 193 l-36 43 30 32 c83 88 134 204 158 356 13 86 14 424 1
486 -30 143 -43 186 -78 256 -84 167 -232 262 -448 285 -55 6 -644 12 -668 7z
m637 -433 c119 -40 161 -135 162 -363 1 -146 -27 -248 -86 -310 -66 -69 -132
-89 -305 -91 l-135 -1 -1 391 -2 391 157 1 c125 0 169 -4 210 -18z"/>
<path d="M168 5589 c-41 -11 -75 -38 -92 -74 -14 -30 -16 -164 -16 -1303 l0
-1269 23 -33 c42 -62 66 -73 164 -73 49 0 99 4 113 8 48 15 87 54 98 98 7 26
11 205 11 482 0 242 0 474 1 515 l0 76 143 0 c78 0 166 4 195 8 389 54 569
316 558 811 -5 173 -9 214 -38 310 -36 123 -76 194 -152 270 -97 96 -197 143
-366 171 -57 9 -609 12 -642 3z m603 -415 c78 -23 139 -88 163 -174 34 -122
27 -330 -15 -425 -49 -111 -127 -147 -321 -150 l-128 -2 -1 61 c0 70 0 562 1
649 l0 57 123 0 c84 0 141 -5 178 -16z"/>
<path d="M1710 5589 c-34 -14 -59 -38 -77 -74 -14 -26 -16 -175 -16 -1290 0
-693 4 -1272 8 -1285 4 -14 17 -36 29 -48 47 -53 41 -52 546 -52 526 0 519 -1
561 67 18 29 23 53 24 122 2 98 -7 135 -42 172 -41 45 -77 49 -402 48 -166 -1
-305 1 -308 4 -3 3 -5 507 -5 1119 l1 1113 -22 37 c-34 61 -58 72 -172 75 -55
2 -111 -2 -125 -8z"/>
<path d="M3675 5586 c-41 -18 -82 -68 -94 -114 -8 -34 -52 -223 -87 -382 -8
-36 -18 -76 -21 -90 -3 -14 -7 -29 -9 -35 -1 -5 -16 -71 -34 -145 -17 -74 -33
-142 -35 -150 -2 -8 -20 -85 -39 -170 -20 -85 -52 -222 -71 -305 -20 -82 -37
-159 -40 -170 -2 -11 -22 -101 -45 -200 -23 -99 -44 -191 -47 -205 -2 -14 -15
-70 -28 -125 -13 -55 -40 -174 -60 -265 -20 -91 -40 -176 -43 -190 -12 -50 -5
-111 15 -138 34 -48 77 -62 184 -62 83 0 100 3 129 23 45 30 71 67 80 113 25
126 134 600 140 607 3 4 97 8 207 10 l202 2 15 -65 c14 -61 79 -355 90 -410
37 -186 49 -217 98 -252 28 -20 47 -23 135 -26 91 -3 107 -1 142 18 51 30 76
81 68 147 -3 26 -17 98 -31 158 -15 61 -28 119 -31 130 -2 11 -26 117 -53 235
-28 118 -66 287 -86 375 -20 88 -66 288 -102 445 -36 156 -67 291 -69 300 -10
47 -80 352 -104 455 -16 66 -39 165 -51 220 -45 204 -62 238 -133 264 -39 15
-156 13 -192 -3z m129 -1091 c14 -71 27 -149 31 -172 12 -100 17 -133 31 -218
9 -49 18 -93 20 -97 3 -4 -47 -8 -111 -8 -114 0 -115 0 -111 23 10 45 26 133
32 172 3 22 7 47 9 55 2 8 7 38 11 65 3 28 8 52 9 55 2 3 11 48 19 100 9 52
19 110 22 129 3 18 7 31 9 30 2 -2 15 -62 29 -134z"/>
<path d="M5299 5596 c-2 -2 -23 -6 -46 -10 -331 -45 -529 -314 -524 -711 0
-55 3 -111 6 -125 2 -14 7 -38 11 -55 41 -204 195 -403 483 -625 68 -52 129
-100 135 -105 6 -6 22 -19 36 -28 45 -31 159 -149 196 -203 50 -72 72 -144 69
-225 -3 -94 -28 -160 -75 -203 -46 -41 -91 -55 -185 -57 -84 -1 -133 15 -179
59 -60 57 -80 133 -90 353 -6 136 -49 175 -194 178 -172 4 -221 -46 -216 -217
4 -119 12 -204 25 -260 6 -26 13 -58 15 -72 11 -52 66 -168 109 -225 75 -100
176 -166 306 -201 91 -24 311 -29 409 -8 174 36 331 147 400 283 66 131 84
220 84 406 -1 178 -40 302 -138 439 -77 107 -158 183 -411 386 -283 227 -366
330 -383 480 -12 106 23 231 78 278 60 51 177 73 262 48 121 -35 173 -135 184
-360 6 -131 17 -162 67 -200 25 -18 42 -21 140 -21 128 0 154 11 187 75 17 33
19 55 15 166 -4 130 -9 176 -26 249 -5 22 -12 51 -15 65 -3 14 -25 66 -49 116
-81 167 -202 264 -395 315 -41 10 -283 23 -291 15z"/>
<path d="M6320 5593 c-33 -13 -71 -46 -87 -76 -11 -23 -16 -58 -16 -123 0
-110 17 -151 73 -183 36 -20 54 -22 222 -24 l183 -2 0 -1121 0 -1121 25 -36
c36 -54 72 -67 180 -67 50 0 101 5 113 11 42 22 77 63 83 98 4 19 7 531 7
1137 l0 1102 184 0 c213 0 243 9 279 79 17 33 20 56 19 137 -2 105 -11 127
-69 170 -27 21 -39 21 -604 23 -317 1 -584 -1 -592 -4z"/>
<path d="M7950 5589 c-33 -13 -59 -38 -77 -74 -14 -26 -16 -176 -16 -1296 0
-1224 1 -1269 19 -1300 38 -64 63 -74 187 -74 101 0 115 2 145 23 66 47 62
-34 62 1354 l0 1260 -22 39 c-32 58 -84 79 -189 78 -46 0 -95 -5 -109 -10z"/>
<path d="M9080 5590 c-19 -4 -50 -10 -67 -14 -93 -18 -210 -84 -279 -157 -102
-107 -159 -241 -189 -439 -18 -120 -18 -1396 0 -1525 43 -312 191 -510 438
-587 61 -19 94 -23 217 -23 199 0 292 26 414 117 119 88 216 259 241 425 3 21
8 50 11 63 3 14 7 81 8 150 5 149 -5 183 -65 222 -38 24 -48 26 -144 25 -88
-2 -108 -5 -132 -23 -53 -40 -65 -74 -69 -197 -4 -131 -26 -242 -57 -289 -34
-52 -116 -88 -198 -88 -77 0 -127 18 -168 61 -35 36 -69 105 -77 155 -3 20 -8
46 -10 58 -7 34 -6 1341 1 1393 19 139 84 238 170 262 139 38 257 -17 303
-141 25 -68 33 -116 37 -239 5 -171 45 -208 223 -204 87 2 95 4 130 32 52 42
61 77 56 218 -13 406 -168 649 -469 732 -57 16 -273 25 -325 13z"/>
<path d="M11076 5575 c-22 -11 -47 -36 -58 -55 -18 -34 -18 -82 -16 -1315 3
-1262 3 -1280 23 -1307 38 -51 70 -61 181 -62 96 0 104 1 138 27 20 15 41 38
48 50 10 17 14 153 18 562 l5 540 245 1 c144 0 255 5 270 11 62 26 88 89 85
208 -3 98 -24 143 -82 170 -31 15 -70 18 -280 18 l-243 0 0 382 0 382 330 0
c303 1 332 2 361 19 62 37 74 64 75 177 2 116 -7 142 -62 184 l-37 28 -481 0
c-466 0 -482 0 -520 -20z"/>
<path d="M12561 5582 c-19 -9 -44 -30 -55 -45 -21 -28 -21 -32 -24 -1290 -1
-694 0 -1277 3 -1295 9 -47 59 -100 103 -108 20 -4 245 -7 499 -7 434 0 463 1
494 19 64 38 74 63 74 187 0 123 -9 147 -70 183 -27 17 -60 18 -357 19 -180 0
-330 3 -333 7 -5 5 -8 397 -6 699 l1 66 274 0 c302 0 312 2 360 66 32 43 36
200 7 260 -38 79 -48 81 -356 83 -148 1 -274 2 -280 3 -10 1 -12 748 -2 758 3
2 150 4 328 5 351 0 358 1 406 57 43 49 46 230 6 287 -46 65 -41 64 -565 64
-431 0 -476 -2 -507 -18z"/>
<path d="M15631 5583 c-18 -9 -44 -33 -58 -54 l-25 -38 0 -1270 c0 -1231 1
-1272 19 -1303 11 -18 34 -43 53 -55 29 -20 46 -23 135 -23 89 0 106 3 135 23
19 12 43 37 54 56 19 33 19 55 19 717 0 728 -2 705 45 582 12 -29 91 -226 177
-438 86 -212 199 -492 252 -622 52 -131 103 -249 114 -262 31 -40 79 -56 166
-56 96 0 139 19 170 74 l21 40 0 1265 0 1266 -21 39 c-34 60 -75 76 -195 73
-112 -2 -140 -14 -176 -76 -18 -31 -19 -63 -19 -718 0 -377 -3 -679 -7 -672
-9 16 -77 181 -161 394 -33 83 -64 159 -69 170 -5 11 -34 81 -64 155 -220 547
-270 668 -287 691 -10 15 -37 34 -59 43 -54 21 -174 21 -219 -1z"/>
<path d="M390 2129 c-100 -14 -142 -33 -201 -92 -98 -98 -142 -269 -115 -441
10 -65 59 -150 121 -212 59 -60 75 -69 287 -168 50 -24 116 -89 135 -134 28
-67 23 -193 -12 -267 -15 -33 -58 -76 -93 -94 -29 -15 -121 -16 -166 -1 -69
23 -111 104 -120 235 -4 60 -9 73 -31 93 -33 28 -67 28 -101 -1 -24 -21 -26
-29 -25 -93 1 -38 3 -78 5 -89 28 -143 92 -239 195 -288 39 -19 63 -22 156
-22 100 0 115 3 167 28 125 61 197 193 203 372 7 190 -79 326 -264 415 -47 23
-110 54 -139 68 -132 64 -188 180 -160 334 25 138 109 212 228 201 109 -10
166 -88 174 -239 4 -72 24 -111 61 -120 34 -8 80 12 93 41 25 53 -7 242 -53
321 -46 79 -136 138 -227 150 -24 3 -47 6 -53 8 -5 1 -35 -1 -65 -5z"/>
<path d="M2955 2133 c-137 -4 -151 -7 -169 -41 -17 -34 -11 -71 14 -97 18 -17
35 -19 167 -21 82 -1 153 -2 158 -3 7 -1 9 -236 8 -689 -1 -684 -1 -687 20
-709 29 -32 86 -31 116 1 l23 24 0 686 c0 502 3 686 12 687 6 1 72 3 146 4
169 3 156 1 180 25 28 28 26 81 -3 108 -23 22 -31 23 -293 25 -148 1 -318 1
-379 0z"/>
<path d="M6234 2129 c-10 -3 -27 -15 -36 -26 -16 -17 -17 -71 -20 -638 -3
-526 -5 -625 -18 -650 -42 -85 -75 -105 -167 -107 -61 -2 -113 23 -138 64 -40
68 -43 113 -43 704 -1 313 -1 579 -1 592 -2 68 -114 87 -145 23 -17 -36 -15
-1214 3 -1281 28 -106 82 -181 162 -225 51 -28 61 -30 164 -30 95 0 117 3 157
23 97 48 158 143 177 272 6 47 10 294 9 653 -1 545 -2 579 -19 601 -20 26 -56
36 -85 25z"/>
<path d="M16494 2128 c-80 -9 -140 -37 -193 -90 -82 -82 -125 -202 -124 -348
1 -97 19 -160 68 -235 51 -80 117 -130 261 -200 143 -68 179 -96 215 -164 46
-90 23 -265 -44 -328 -46 -44 -71 -54 -135 -54 -139 -1 -192 64 -207 251 -5
72 -21 96 -71 106 -48 9 -85 -28 -87 -86 -1 -38 6 -108 18 -172 8 -42 57 -130
94 -167 69 -69 118 -86 246 -86 91 0 118 4 156 21 140 65 224 230 215 424 -8
170 -95 289 -276 376 -52 25 -114 55 -137 66 -97 48 -154 135 -157 242 -5 178
78 290 217 288 121 -2 177 -72 192 -242 3 -36 12 -75 21 -87 20 -31 59 -39 99
-20 26 13 34 24 39 54 13 75 -18 228 -59 299 -66 113 -198 170 -351 152z"/>
<path d="M8446 2105 l-23 -25 0 -737 c-1 -657 1 -741 15 -765 18 -31 11 -30
187 -32 204 -2 266 12 353 82 67 53 109 133 127 237 3 22 6 240 6 485 0 367
-3 455 -16 503 -21 79 -49 132 -96 178 -82 81 -149 99 -367 99 -161 0 -163 0
-186 -25z m401 -158 c54 -28 78 -70 99 -172 7 -32 7 -847 0 -884 -10 -49 -34
-102 -59 -130 -36 -39 -83 -53 -199 -57 l-108 -4 0 635 0 634 38 3 c69 6 197
-8 229 -25z"/>
<path d="M11226 2114 c-9 -8 -20 -23 -24 -32 -5 -9 -8 -349 -8 -754 l1 -737
22 -22 c30 -30 86 -30 116 0 l22 21 1 738 c0 769 0 780 -41 796 -30 11 -73 6
-89 -10z"/>
<path d="M13636 2110 c-95 -37 -148 -87 -185 -174 -40 -92 -44 -144 -43 -611
1 -489 4 -519 59 -615 74 -130 218 -187 389 -155 153 29 250 147 272 332 12
106 7 899 -7 957 -29 122 -95 210 -190 255 -75 34 -220 40 -295 11z m231 -160
c50 -22 78 -64 94 -138 12 -58 15 -868 4 -937 -20 -117 -95 -177 -212 -169
-96 7 -141 45 -170 143 -14 48 -17 117 -18 466 -1 448 5 520 50 585 37 53 71
68 155 69 34 0 71 -7 97 -19z"/>
</g>
</svg>
